<svg width="137" height="31" viewBox="0 0 137 31" fill="none" xmlns="http://www.w3.org/2000/svg">
<path d="M26.04 9.8C26.04 11.5 25.44 12.97 24.24 14.21C23.04 15.43 21.29 16.31 18.99 16.85C20.23 17.19 21.17 17.75 21.81 18.53C22.45 19.29 22.77 20.17 22.77 21.17C22.77 22.75 22.27 24.12 21.27 25.28C20.29 26.44 18.85 27.34 16.95 27.98C15.05 28.6 12.76 28.91 10.08 28.91C9.08 28.91 8.28 28.88 7.68 28.82C7.66 29.38 7.42 29.8 6.96 30.08C6.5 30.36 5.91 30.5 5.19 30.5C4.47 30.5 3.97 30.34 3.69 30.02C3.43 29.7 3.32 29.23 3.36 28.61C3.54 25.81 3.89 22.88 4.41 19.82C4.93 16.74 5.59 13.77 6.39 10.91C6.53 10.41 6.81 10.06 7.23 9.86C7.65 9.66 8.2 9.56 8.88 9.56C10.1 9.56 10.71 9.9 10.71 10.58C10.71 10.86 10.65 11.18 10.53 11.54C10.01 13.1 9.49 15.22 8.97 17.9C8.45 20.56 8.08 23.1 7.86 25.52C8.82 25.6 9.6 25.64 10.2 25.64C13 25.64 15.05 25.24 16.35 24.44C17.67 23.62 18.33 22.58 18.33 21.32C18.33 20.44 17.95 19.7 17.19 19.1C16.45 18.5 15.2 18.17 13.44 18.11C13.04 18.09 12.76 17.99 12.6 17.81C12.44 17.63 12.36 17.34 12.36 16.94C12.36 16.36 12.48 15.89 12.72 15.53C12.96 15.17 13.4 14.98 14.04 14.96C15.46 14.92 16.74 14.71 17.88 14.33C19.04 13.95 19.95 13.42 20.61 12.74C21.27 12.04 21.6 11.23 21.6 10.31C21.6 9.15 21.03 8.24 19.89 7.58C18.75 6.9 17 6.56 14.64 6.56C12.5 6.56 10.43 6.84 8.43 7.4C6.43 7.94 4.73 8.63 3.33 9.47C2.69 9.85 2.15 10.04 1.71 10.04C1.35 10.04 1.07 9.92 0.87 9.68C0.69 9.42 0.6 9.1 0.6 8.72C0.6 8.22 0.7 7.79 0.9 7.43C1.12 7.07 1.63 6.66 2.43 6.2C4.11 5.24 6.08 4.49 8.34 3.95C10.6 3.41 12.91 3.14 15.27 3.14C18.89 3.14 21.59 3.75 23.37 4.97C25.15 6.19 26.04 7.8 26.04 9.8ZM37.6245 22.31C37.8845 22.31 38.0845 22.43 38.2245 22.67C38.3845 22.91 38.4645 23.24 38.4645 23.66C38.4645 24.46 38.2745 25.08 37.8945 25.52C37.0345 26.58 36.0945 27.45 35.0745 28.13C34.0745 28.81 32.9345 29.15 31.6545 29.15C29.8945 29.15 28.5845 28.35 27.7245 26.75C26.8845 25.15 26.4645 23.08 26.4645 20.54C26.4645 18.1 26.7745 15.32 27.3945 12.2C28.0345 9.08 28.9645 6.4 30.1845 4.16C31.4245 1.92 32.8945 0.799998 34.5945 0.799998C35.5545 0.799998 36.3045 1.25 36.8445 2.15C37.4045 3.03 37.6845 4.3 37.6845 5.96C37.6845 8.34 37.0245 11.1 35.7045 14.24C34.3845 17.38 32.5945 20.49 30.3345 23.57C30.4745 24.39 30.7045 24.98 31.0245 25.34C31.3445 25.68 31.7645 25.85 32.2845 25.85C33.1045 25.85 33.8245 25.62 34.4445 25.16C35.0645 24.68 35.8545 23.87 36.8145 22.73C37.0545 22.45 37.3245 22.31 37.6245 22.31ZM33.9345 3.77C33.4745 3.77 32.9545 4.6 32.3745 6.26C31.7945 7.92 31.2845 9.98 30.8445 12.44C30.4045 14.9 30.1645 17.26 30.1245 19.52C31.5445 17.18 32.6745 14.84 33.5145 12.5C34.3545 10.14 34.7745 7.99 34.7745 6.05C34.7745 4.53 34.4945 3.77 33.9345 3.77ZM51.3396 19.79C51.5996 19.79 51.7996 19.92 51.9396 20.18C52.0796 20.44 52.1496 20.77 52.1496 21.17C52.1496 22.13 51.8596 22.7 51.2796 22.88C50.0796 23.3 48.7596 23.54 47.3196 23.6C46.9396 25.28 46.1896 26.63 45.0696 27.65C43.9496 28.65 42.6796 29.15 41.2596 29.15C40.0596 29.15 39.0296 28.86 38.1696 28.28C37.3296 27.7 36.6896 26.93 36.2496 25.97C35.8096 25.01 35.5896 23.97 35.5896 22.85C35.5896 21.33 35.8796 19.98 36.4596 18.8C37.0396 17.6 37.8396 16.67 38.8596 16.01C39.8796 15.33 41.0096 14.99 42.2496 14.99C43.7696 14.99 44.9896 15.52 45.9096 16.58C46.8496 17.62 47.3996 18.91 47.5596 20.45C48.4996 20.39 49.6196 20.19 50.9196 19.85C51.0796 19.81 51.2196 19.79 51.3396 19.79ZM41.4996 25.97C42.1396 25.97 42.6896 25.71 43.1496 25.19C43.6296 24.67 43.9496 23.92 44.1096 22.94C43.4896 22.52 43.0096 21.97 42.6696 21.29C42.3496 20.61 42.1896 19.89 42.1896 19.13C42.1896 18.81 42.2196 18.49 42.2796 18.17H42.1296C41.3296 18.17 40.6596 18.56 40.1196 19.34C39.5996 20.1 39.3396 21.18 39.3396 22.58C39.3396 23.68 39.5496 24.52 39.9696 25.1C40.4096 25.68 40.9196 25.97 41.4996 25.97ZM55.3048 29.15C53.3448 29.15 51.8148 28.6 50.7148 27.5C49.6348 26.38 49.0948 24.91 49.0948 23.09C49.0948 21.47 49.4148 20.05 50.0548 18.83C50.6948 17.61 51.5248 16.67 52.5448 16.01C53.5648 15.35 54.6348 15.02 55.7548 15.02C56.8548 15.02 57.7048 15.35 58.3048 16.01C58.9248 16.65 59.2348 17.48 59.2348 18.5C59.2348 19.34 59.0448 20.05 58.6648 20.63C58.3048 21.21 57.8248 21.5 57.2248 21.5C56.8448 21.5 56.5348 21.41 56.2948 21.23C56.0748 21.05 55.9648 20.8 55.9648 20.48C55.9648 20.34 55.9848 20.18 56.0248 20C56.0648 19.82 56.0948 19.69 56.1148 19.61C56.2148 19.31 56.2648 19.03 56.2648 18.77C56.2648 18.51 56.1948 18.31 56.0548 18.17C55.9348 18.03 55.7548 17.96 55.5148 17.96C55.0548 17.96 54.6248 18.17 54.2248 18.59C53.8248 18.99 53.5048 19.54 53.2648 20.24C53.0248 20.94 52.9048 21.71 52.9048 22.55C52.9048 24.87 53.9148 26.03 55.9348 26.03C56.7548 26.03 57.6348 25.76 58.5748 25.22C59.5348 24.66 60.4748 23.83 61.3948 22.73C61.6348 22.45 61.9048 22.31 62.2048 22.31C62.4648 22.31 62.6648 22.43 62.8048 22.67C62.9648 22.91 63.0448 23.24 63.0448 23.66C63.0448 24.42 62.8548 25.04 62.4748 25.52C61.5348 26.68 60.4048 27.58 59.0848 28.22C57.7848 28.84 56.5248 29.15 55.3048 29.15ZM73.9997 22.31C74.2597 22.31 74.4597 22.43 74.5997 22.67C74.7597 22.91 74.8397 23.24 74.8397 23.66C74.8397 24.46 74.6497 25.08 74.2697 25.52C73.5297 26.42 72.4797 27.25 71.1197 28.01C69.7797 28.77 68.3397 29.15 66.7997 29.15C64.6997 29.15 63.0697 28.58 61.9097 27.44C60.7497 26.3 60.1697 24.74 60.1697 22.76C60.1697 21.38 60.4597 20.1 61.0397 18.92C61.6197 17.72 62.4197 16.77 63.4397 16.07C64.4797 15.37 65.6497 15.02 66.9497 15.02C68.1097 15.02 69.0397 15.37 69.7397 16.07C70.4397 16.75 70.7897 17.68 70.7897 18.86C70.7897 20.24 70.2897 21.43 69.2897 22.43C68.3097 23.41 66.6397 24.19 64.2797 24.77C64.7797 25.69 65.7297 26.15 67.1297 26.15C68.0297 26.15 69.0497 25.84 70.1897 25.22C71.3497 24.58 72.3497 23.75 73.1897 22.73C73.4297 22.45 73.6997 22.31 73.9997 22.31ZM66.4397 17.96C65.6997 17.96 65.0697 18.39 64.5497 19.25C64.0497 20.11 63.7997 21.15 63.7997 22.37V22.43C64.9797 22.15 65.9097 21.73 66.5897 21.17C67.2697 20.61 67.6097 19.96 67.6097 19.22C67.6097 18.84 67.4997 18.54 67.2797 18.32C67.0797 18.08 66.7997 17.96 66.4397 17.96ZM74.527 29.15C73.767 29.15 73.227 28.75 72.907 27.95C72.607 27.15 72.457 25.87 72.457 24.11C72.457 21.51 72.827 19.04 73.567 16.7C73.747 16.12 74.037 15.7 74.437 15.44C74.857 15.16 75.437 15.02 76.177 15.02C76.577 15.02 76.857 15.07 77.017 15.17C77.177 15.27 77.257 15.46 77.257 15.74C77.257 16.06 77.107 16.78 76.807 17.9C76.607 18.7 76.447 19.4 76.327 20C76.207 20.6 76.107 21.34 76.027 22.22C76.687 20.5 77.427 19.1 78.247 18.02C79.067 16.94 79.867 16.17 80.647 15.71C81.447 15.25 82.177 15.02 82.837 15.02C84.137 15.02 84.787 15.67 84.787 16.97C84.787 17.75 84.567 19.16 84.127 21.2C83.747 22.94 83.557 24.09 83.557 24.65C83.557 25.45 83.847 25.85 84.427 25.85C84.827 25.85 85.297 25.61 85.837 25.13C86.397 24.63 87.137 23.83 88.057 22.73C88.297 22.45 88.567 22.31 88.867 22.31C89.127 22.31 89.327 22.43 89.467 22.67C89.627 22.91 89.707 23.24 89.707 23.66C89.707 24.46 89.517 25.08 89.137 25.52C88.277 26.58 87.347 27.45 86.347 28.13C85.367 28.81 84.247 29.15 82.987 29.15C81.967 29.15 81.197 28.86 80.677 28.28C80.157 27.68 79.897 26.82 79.897 25.7C79.897 25.14 80.037 24.14 80.317 22.7C80.577 21.44 80.707 20.57 80.707 20.09C80.707 19.77 80.597 19.61 80.377 19.61C80.117 19.61 79.747 19.95 79.267 20.63C78.807 21.29 78.327 22.17 77.827 23.27C77.347 24.37 76.957 25.53 76.657 26.75C76.437 27.69 76.177 28.33 75.877 28.67C75.597 28.99 75.147 29.15 74.527 29.15ZM100.66 22.31C100.92 22.31 101.12 22.43 101.26 22.67C101.42 22.91 101.5 23.24 101.5 23.66C101.5 24.46 101.31 25.08 100.93 25.52C100.07 26.58 99.1298 27.45 98.1098 28.13C97.0898 28.81 95.9198 29.15 94.5998 29.15C90.5198 29.15 88.4798 26.28 88.4798 20.54C88.4798 19.66 88.5098 18.77 88.5698 17.87H87.3998C86.7998 17.87 86.3898 17.76 86.1698 17.54C85.9698 17.32 85.8698 16.97 85.8698 16.49C85.8698 15.37 86.3198 14.81 87.2198 14.81H88.9298C89.2698 12.61 89.7898 10.6 90.4898 8.78C91.1898 6.96 92.0298 5.51 93.0098 4.43C94.0098 3.35 95.0798 2.81 96.2198 2.81C97.0598 2.81 97.7198 3.18 98.1998 3.92C98.6798 4.66 98.9198 5.59 98.9198 6.71C98.9198 9.81 97.6198 12.51 95.0198 14.81H98.3798C98.6998 14.81 98.9298 14.88 99.0698 15.02C99.2098 15.16 99.2798 15.42 99.2798 15.8C99.2798 17.18 98.1498 17.87 95.8898 17.87H92.2298C92.1898 18.87 92.1698 19.65 92.1698 20.21C92.1698 22.29 92.4098 23.75 92.8898 24.59C93.3898 25.43 94.1698 25.85 95.2298 25.85C96.0898 25.85 96.8498 25.59 97.5098 25.07C98.1698 24.55 98.9498 23.77 99.8498 22.73C100.09 22.45 100.36 22.31 100.66 22.31ZM95.4098 5.69C95.1098 5.69 94.7698 6.07 94.3898 6.83C94.0298 7.57 93.6798 8.61 93.3398 9.95C93.0198 11.27 92.7498 12.74 92.5298 14.36C93.7098 13.34 94.5898 12.2 95.1698 10.94C95.7698 9.66 96.0698 8.5 96.0698 7.46C96.0698 6.28 95.8498 5.69 95.4098 5.69ZM101.187 29.15C100.427 29.15 99.8872 28.75 99.5672 27.95C99.2672 27.15 99.1172 25.87 99.1172 24.11C99.1172 21.51 99.4872 19.04 100.227 16.7C100.407 16.12 100.697 15.7 101.097 15.44C101.517 15.16 102.097 15.02 102.837 15.02C103.237 15.02 103.517 15.07 103.677 15.17C103.837 15.27 103.917 15.46 103.917 15.74C103.917 16.06 103.767 16.78 103.467 17.9C103.267 18.7 103.107 19.4 102.987 20C102.867 20.6 102.767 21.34 102.687 22.22C103.347 20.5 104.087 19.1 104.907 18.02C105.727 16.94 106.527 16.17 107.307 15.71C108.107 15.25 108.837 15.02 109.497 15.02C110.797 15.02 111.447 15.67 111.447 16.97C111.447 17.23 111.357 17.86 111.177 18.86C111.017 19.66 110.937 20.16 110.937 20.36C110.937 21.06 111.187 21.41 111.687 21.41C112.247 21.41 112.967 20.97 113.847 20.09C114.107 19.83 114.377 19.7 114.657 19.7C114.917 19.7 115.117 19.82 115.257 20.06C115.417 20.28 115.497 20.58 115.497 20.96C115.497 21.7 115.297 22.28 114.897 22.7C114.337 23.28 113.677 23.78 112.917 24.2C112.177 24.6 111.387 24.8 110.547 24.8C109.487 24.8 108.677 24.53 108.117 23.99C107.577 23.45 107.307 22.72 107.307 21.8C107.307 21.5 107.337 21.2 107.397 20.9C107.437 20.5 107.457 20.23 107.457 20.09C107.457 19.77 107.347 19.61 107.127 19.61C106.827 19.61 106.427 19.95 105.927 20.63C105.447 21.29 104.967 22.17 104.487 23.27C104.007 24.37 103.617 25.53 103.317 26.75C103.097 27.69 102.837 28.33 102.537 28.67C102.257 28.99 101.807 29.15 101.187 29.15ZM116.64 13.04C115.8 13.04 115.17 12.85 114.75 12.47C114.33 12.07 114.12 11.52 114.12 10.82C114.12 10.12 114.39 9.54 114.93 9.08C115.49 8.6 116.18 8.36 117 8.36C117.74 8.36 118.34 8.54 118.8 8.9C119.26 9.26 119.49 9.77 119.49 10.43C119.49 11.23 119.23 11.87 118.71 12.35C118.19 12.81 117.5 13.04 116.64 13.04ZM116.4 29.15C115.1 29.15 114.15 28.69 113.55 27.77C112.97 26.85 112.68 25.63 112.68 24.11C112.68 23.21 112.79 22.06 113.01 20.66C113.25 19.24 113.55 17.92 113.91 16.7C114.09 16.06 114.33 15.62 114.63 15.38C114.93 15.14 115.41 15.02 116.07 15.02C117.09 15.02 117.6 15.36 117.6 16.04C117.6 16.54 117.41 17.7 117.03 19.52C116.55 21.72 116.31 23.21 116.31 23.99C116.31 24.59 116.39 25.05 116.55 25.37C116.71 25.69 116.98 25.85 117.36 25.85C117.72 25.85 118.17 25.6 118.71 25.1C119.25 24.6 119.97 23.81 120.87 22.73C121.11 22.45 121.38 22.31 121.68 22.31C121.94 22.31 122.14 22.43 122.28 22.67C122.44 22.91 122.52 23.24 122.52 23.66C122.52 24.46 122.33 25.08 121.95 25.52C119.97 27.94 118.12 29.15 116.4 29.15ZM135.782 23.21C136.042 23.21 136.242 23.33 136.382 23.57C136.542 23.81 136.622 24.14 136.622 24.56C136.622 25.28 136.452 25.9 136.112 26.42C134.932 28.24 133.252 29.15 131.072 29.15C130.132 29.15 129.292 28.97 128.552 28.61C127.832 28.23 127.242 27.69 126.782 26.99C125.622 28.41 124.272 29.12 122.732 29.12C121.632 29.12 120.762 28.8 120.122 28.16C119.482 27.52 119.162 26.67 119.162 25.61C119.162 24.61 119.392 23.8 119.852 23.18C120.312 22.56 120.962 22.25 121.802 22.25C122.522 22.25 122.882 22.52 122.882 23.06C122.882 23.22 122.862 23.5 122.822 23.9L122.732 25.04C122.732 25.64 122.992 25.94 123.512 25.94C123.892 25.94 124.252 25.72 124.592 25.28C124.952 24.82 125.242 24.2 125.462 23.42C125.702 22.64 125.822 21.78 125.822 20.84C125.822 20.12 125.732 19.52 125.552 19.04C125.372 18.54 125.152 18.29 124.892 18.29C124.672 18.29 124.512 18.35 124.412 18.47C124.312 18.57 124.212 18.75 124.112 19.01C123.992 19.33 123.832 19.59 123.632 19.79C123.432 19.97 123.082 20.06 122.582 20.06C122.142 20.06 121.792 19.91 121.532 19.61C121.272 19.29 121.142 18.81 121.142 18.17C121.142 17.15 121.452 16.35 122.072 15.77C122.692 15.19 123.492 14.9 124.472 14.9C125.312 14.9 126.072 15.11 126.752 15.53C127.432 15.93 127.952 16.52 128.312 17.3C128.912 16.5 129.582 15.9 130.322 15.5C131.082 15.1 131.822 14.9 132.542 14.9C133.322 14.9 133.912 15.08 134.312 15.44C134.732 15.8 134.942 16.38 134.942 17.18C134.942 18.08 134.772 18.79 134.432 19.31C134.092 19.81 133.682 20.06 133.202 20.06C132.762 20.06 132.462 19.97 132.302 19.79C132.142 19.61 132.022 19.35 131.942 19.01C131.902 18.77 131.842 18.59 131.762 18.47C131.682 18.35 131.542 18.29 131.342 18.29C131.102 18.29 130.842 18.52 130.562 18.98C130.302 19.42 130.072 20.01 129.872 20.75C129.692 21.49 129.602 22.26 129.602 23.06C129.602 23.96 129.802 24.68 130.202 25.22C130.622 25.76 131.122 26.03 131.702 26.03C132.802 26.03 133.892 25.24 134.972 23.66C135.172 23.36 135.442 23.21 135.782 23.21Z" fill="#8A2BE2"/>
</svg>
